<svg xmlns="http://www.w3.org/2000/svg" viewBox="96 70 360 372" role="img" aria-label="DANQEL DIGITAL INSTITUTE"><defs><mask id="__m"><rect x="90" y="66" width="372" height="380" fill="#fff"/><rect x="150" y="300" width="120" height="26" fill="#000" transform="rotate(-45 210 313)"/><rect x="150" y="352" width="120" height="26" fill="#000" transform="rotate(-45 210 365)"/></mask></defs>
  <g fill="#2151E3" mask="url(#__m)">
    <rect x="176" y="80" width="74" height="352"/>
    <rect x="176" y="80" width="164" height="72"/>
    <rect x="176" y="360" width="164" height="72"/>
    <path d="M340 80 A176 176 0 0 1 340 432 L340 360 A104 104 0 0 0 340 150 Z"/>
    <rect x="136" y="106" width="32" height="32"/><rect x="100" y="144" width="24" height="24"/>
    <rect x="138" y="160" width="32" height="32"/><rect x="118" y="204" width="24" height="24"/>
  </g>
  <g fill="#ffffff">
    <path d="M316 188 L412 232 L316 276 L220 232 Z"/>
    <rect x="262" y="252" width="108" height="54" rx="8"/>
    <rect x="398" y="236" width="8" height="64"/><circle cx="402" cy="306" r="9"/>
    <path d="M398 306 L410 306 L416 336 L404 336 Z"/>
  </g></svg>